<svg version="1.1" id="Layer_1" xmlns="http://www.w3.org/2000/svg" xmlns:xlink="http://www.w3.org/1999/xlink" x="0px" y="0px"
	 width="100%" viewBox="0 0 96 96" enable-background="new 0 0 96 96" xml:space="preserve">
<path fill="#000000" opacity="1.000000" stroke="none" 
	d="
M59.000000,97.000000 
	C39.333336,97.000000 20.166674,97.000000 1.000008,97.000000 
	C1.000005,65.000008 1.000005,33.000019 1.000003,1.000021 
	C32.999985,1.000014 64.999969,1.000014 96.999969,1.000007 
	C96.999977,32.999981 96.999977,64.999962 96.999985,96.999969 
	C84.500000,97.000000 72.000000,97.000000 59.000000,97.000000 
M86.959351,38.227077 
	C86.009552,35.469353 85.059761,32.711632 83.996338,29.242956 
	C82.643570,26.829422 81.290794,24.415888 80.560211,21.749687 
	C81.744293,20.494123 82.928383,19.238560 83.640450,18.483505 
	C80.852989,15.290579 78.502014,12.597631 75.888306,9.603736 
	C74.337296,11.372284 73.167976,12.705605 71.330017,13.818809 
	C58.914963,3.684447 35.612114,4.429502 23.272081,16.236681 
	C20.808582,19.477642 18.345081,22.718605 15.276669,26.308516 
	C14.239492,28.870903 13.202315,31.433290 11.989141,34.820339 
	C11.714231,38.543285 11.439323,42.266232 11.023881,46.918045 
	C11.071310,53.274498 11.118738,59.630951 11.027322,66.909225 
	C11.073771,71.271088 11.120219,75.632942 11.092095,80.804306 
	C12.861806,81.538025 14.627282,82.898163 16.401869,82.910156 
	C38.098518,83.056778 59.796562,83.025078 81.494034,82.964455 
	C83.033333,82.960159 84.570992,82.366486 86.765457,81.498360 
	C86.787918,76.661591 86.810371,71.824829 86.952644,66.061058 
	C86.913284,60.704609 86.873924,55.348160 86.958893,49.083363 
	C86.917221,45.720959 86.875542,42.358555 86.959351,38.227077 
z"/>
<path fill="#66717A" opacity="1.000000" stroke="none" 
	d="
M86.109413,82.046867 
	C84.570992,82.366486 83.033333,82.960159 81.494034,82.964455 
	C59.796562,83.025078 38.098518,83.056778 16.401869,82.910156 
	C14.627282,82.898163 12.861806,81.538025 11.550023,80.408211 
	C21.049456,81.140465 30.075165,81.782738 39.264469,79.308594 
	C36.266716,76.243340 32.841671,74.289886 29.875151,71.791908 
	C27.154711,69.501144 22.961451,67.876236 24.450140,63.067139 
	C26.069872,64.452095 27.348082,65.753410 28.692623,66.982124 
	C42.601227,79.692574 64.192223,76.832962 74.218475,60.789856 
	C75.236015,59.363583 76.016769,58.141861 77.164093,56.935368 
	C78.019524,56.967113 78.508385,56.983635 78.913857,57.332794 
	C77.893631,59.444817 76.956787,61.224197 75.797638,63.253601 
	C70.102554,68.820930 64.629791,74.138245 58.509197,80.084991 
	C60.853012,80.423508 62.833603,80.854759 64.832626,80.972107 
	C71.921494,81.388268 79.016640,81.697273 86.109413,82.046867 
z"/>
<path fill="#68747F" opacity="1.000000" stroke="none" 
	d="
M24.139412,62.949799 
	C22.961451,67.876236 27.154711,69.501144 29.875151,71.791908 
	C32.841671,74.289886 36.266716,76.243340 39.264469,79.308594 
	C30.075165,81.782738 21.049456,81.140465 11.587309,80.003464 
	C11.120219,75.632942 11.073771,71.271088 11.530162,66.450607 
	C15.676924,65.516899 20.858379,67.804443 21.374178,60.992165 
	C22.281542,60.948811 22.799833,60.923000 23.526981,61.092777 
	C23.870361,61.842178 24.004887,62.395988 24.139412,62.949799 
z"/>
<path fill="#68747F" opacity="1.000000" stroke="none" 
	d="
M86.437439,81.772614 
	C79.016640,81.697273 71.921494,81.388268 64.832626,80.972107 
	C62.833603,80.854759 60.853012,80.423508 58.509197,80.084991 
	C64.629791,74.138245 70.102554,68.820930 75.998642,63.545319 
	C78.662323,68.485596 83.117661,66.603973 86.832832,66.988060 
	C86.810371,71.824829 86.787918,76.661591 86.437439,81.772614 
z"/>
<path fill="#858D94" opacity="1.000000" stroke="none" 
	d="
M23.878464,15.964570 
	C35.612114,4.429502 58.914963,3.684447 71.791809,14.230335 
	C73.139427,15.631691 74.025238,16.621519 74.515091,17.773607 
	C72.746078,18.290371 71.373047,18.644875 69.668449,18.897175 
	C62.286793,13.850444 54.452663,10.787771 45.896038,12.263097 
	C40.106495,13.261324 34.621819,16.027712 28.717171,17.809643 
	C26.915192,17.065548 25.396828,16.515059 23.878464,15.964570 
z"/>
<path fill="#7D858C" opacity="1.000000" stroke="none" 
	d="
M29.000784,18.003250 
	C34.621819,16.027712 40.106495,13.261324 45.896038,12.263097 
	C54.452663,10.787771 62.286793,13.850444 69.850174,19.167852 
	C71.907310,21.365000 73.451157,23.189268 74.582977,25.017063 
	C73.346893,25.044144 72.522842,25.067694 71.368217,25.061260 
	C69.261307,23.477844 67.484985,21.924406 65.444031,20.144638 
	C54.434086,13.616990 43.708061,12.885008 32.679611,20.110470 
	C29.629139,22.478113 26.908365,24.764996 23.834486,27.094719 
	C21.656540,29.092838 19.831697,31.048115 17.644680,33.083874 
	C15.576715,33.441463 13.870926,33.718571 12.165138,33.995674 
	C13.202315,31.433290 14.239492,28.870903 15.979541,26.136267 
	C22.504604,25.965845 25.288332,21.266001 29.000784,18.003250 
z"/>
<path fill="#717C85" opacity="1.000000" stroke="none" 
	d="
M18.006855,33.003391 
	C19.831697,31.048115 21.656540,29.092838 23.762659,27.425859 
	C23.669621,28.767956 23.295303,29.821753 22.651041,31.120586 
	C21.210629,35.595600 20.040159,39.825581 18.574043,44.261642 
	C16.038683,49.335072 16.966709,53.805016 20.015074,58.332474 
	C20.363298,59.437435 20.674202,60.223568 20.985107,61.009705 
	C20.858379,67.804443 15.676924,65.516899 11.599585,65.989693 
	C11.118738,59.630951 11.071310,53.274498 11.446001,46.403679 
	C17.682095,43.388916 16.236975,37.430355 18.006855,33.003391 
z"/>
<path fill="#717C85" opacity="1.000000" stroke="none" 
	d="
M86.892738,66.524559 
	C83.117661,66.603973 78.662323,68.485596 76.220955,63.295300 
	C76.956787,61.224197 77.893631,59.444817 79.094376,57.008072 
	C80.232338,53.235733 81.106384,50.120758 82.208611,47.241257 
	C83.902718,48.315056 85.368645,49.153385 86.834564,49.991711 
	C86.873924,55.348160 86.913284,60.704609 86.892738,66.524559 
z"/>
<path fill="#7F8890" opacity="1.000000" stroke="none" 
	d="
M74.995010,25.013535 
	C73.451157,23.189268 71.907310,21.365000 70.181732,19.270054 
	C71.373047,18.644875 72.746078,18.290371 74.750793,17.934856 
	C76.900978,19.290016 78.419495,20.646187 79.938019,22.002356 
	C81.290794,24.415888 82.643570,26.829422 83.732872,29.709969 
	C81.648560,30.116587 79.827705,30.056189 77.859734,29.703526 
	C76.806740,27.945351 75.900871,26.479443 74.995010,25.013535 
z"/>
<path fill="#4C4C4D" opacity="1.000000" stroke="none" 
	d="
M80.249115,21.876022 
	C78.419495,20.646187 76.900978,19.290016 75.146759,17.772598 
	C74.025238,16.621519 73.139427,15.631691 72.126129,14.340395 
	C73.167976,12.705605 74.337296,11.372284 75.888306,9.603736 
	C78.502014,12.597631 80.852989,15.290579 83.640450,18.483505 
	C82.928383,19.238560 81.744293,20.494123 80.249115,21.876022 
z"/>
<path fill="#818A91" opacity="1.000000" stroke="none" 
	d="
M28.717171,17.809643 
	C25.288332,21.266001 22.504604,25.965845 16.281998,25.961792 
	C18.345081,22.718605 20.808582,19.477642 23.575272,16.100626 
	C25.396828,16.515059 26.915192,17.065548 28.717171,17.809643 
z"/>
<path fill="#79838C" opacity="1.000000" stroke="none" 
	d="
M17.644680,33.083874 
	C16.236975,37.430355 17.682095,43.388916 11.516269,45.939243 
	C11.439323,42.266232 11.714231,38.543285 12.077139,34.408005 
	C13.870926,33.718571 15.576715,33.441463 17.644680,33.083874 
z"/>
<path fill="#77818A" opacity="1.000000" stroke="none" 
	d="
M86.896729,49.537537 
	C85.368645,49.153385 83.902718,48.315056 82.208900,46.868572 
	C81.978798,45.515518 81.976585,44.770622 81.967468,43.639633 
	C81.643860,41.500469 81.327156,39.747402 81.370865,38.077019 
	C83.432137,38.438519 85.133003,38.717335 86.833862,38.996151 
	C86.875542,42.358555 86.917221,45.720959 86.896729,49.537537 
z"/>
<path fill="#7A848C" opacity="1.000000" stroke="none" 
	d="
M86.896606,38.611614 
	C85.133003,38.717335 83.432137,38.438519 81.324844,37.717880 
	C79.947899,34.849297 78.977379,32.422546 78.006859,29.995790 
	C79.827705,30.056189 81.648560,30.116587 83.789688,30.065445 
	C85.059761,32.711632 86.009552,35.469353 86.896606,38.611614 
z"/>
<path fill="#D0D4D7" opacity="1.000000" stroke="none" 
	d="
M24.450140,63.067139 
	C24.004887,62.395988 23.870361,61.842178 23.500496,60.862701 
	C23.265158,60.437035 23.268002,59.973866 23.649954,59.993355 
	C31.689672,61.675144 39.347439,63.337437 47.097107,65.364754 
	C47.581238,67.337776 47.973469,68.945778 48.365704,70.553780 
	C48.880314,70.511230 49.394924,70.468674 49.909538,70.426125 
	C50.271828,68.950409 50.634117,67.474693 51.425842,65.997543 
	C53.984207,65.741127 56.164268,65.695412 58.232048,65.190178 
	C63.508644,63.900909 68.735153,62.406647 73.981705,60.994408 
	C64.192223,76.832962 42.601227,79.692574 28.692623,66.982124 
	C27.348082,65.753410 26.069872,64.452095 24.450140,63.067139 
z"/>
<path fill="#D8DBDE" opacity="1.000000" stroke="none" 
	d="
M74.218475,60.789852 
	C68.735153,62.406647 63.508644,63.900909 58.232048,65.190178 
	C56.164268,65.695412 53.984207,65.741127 51.342995,65.553543 
	C50.886223,62.407322 50.941730,59.703667 51.384422,56.912022 
	C57.320004,55.143646 63.034103,53.861832 68.360527,51.647491 
	C72.124229,50.082809 75.362663,47.254627 78.891602,45.402885 
	C78.230911,49.516888 77.514221,53.218517 76.797531,56.920143 
	C76.016769,58.141861 75.236015,59.363583 74.218475,60.789852 
z"/>
<path fill="#68747F" opacity="1.000000" stroke="none" 
	d="
M77.164093,56.935368 
	C77.514221,53.218517 78.230911,49.516888 78.967842,45.158775 
	C79.036308,44.338753 79.084526,44.175224 79.488266,44.010357 
	C80.553978,44.014591 81.264175,44.020161 81.974365,44.025726 
	C81.976585,44.770622 81.978798,45.515518 81.980721,46.633099 
	C81.106384,50.120758 80.232338,53.235733 79.177765,56.675430 
	C78.508385,56.983635 78.019524,56.967113 77.164093,56.935368 
z"/>
<path fill="#66717A" opacity="1.000000" stroke="none" 
	d="
M23.268002,59.973866 
	C23.268002,59.973866 23.265158,60.437035 23.291641,60.667110 
	C22.799833,60.923000 22.281542,60.948811 21.374180,60.992165 
	C20.674202,60.223568 20.363298,59.437435 20.185783,58.152687 
	C20.552629,57.420578 20.795515,57.197342 21.309246,57.158867 
	C22.136442,58.213539 22.702221,59.093704 23.268002,59.973866 
z"/>
<path fill="#E9EBED" opacity="1.000000" stroke="none" 
	d="
M22.920986,30.875551 
	C23.295303,29.821753 23.669621,28.767956 24.115763,27.383018 
	C26.908365,24.764996 29.629139,22.478113 32.777237,20.440893 
	C40.440853,34.470295 54.445961,35.991215 62.988033,23.933735 
	C63.851273,22.715233 64.799736,21.557110 65.708656,20.370970 
	C67.484985,21.924406 69.261307,23.477844 71.504181,25.352390 
	C72.346169,26.435659 72.721603,27.197817 72.825989,28.162716 
	C70.687042,30.422876 69.106110,32.902210 66.872238,34.421562 
	C64.540085,36.007767 61.579178,36.669552 59.043598,37.446449 
	C62.077095,34.069401 64.960144,30.981375 67.843193,27.893351 
	C67.197815,27.277615 66.552437,26.661880 65.907066,26.046146 
	C60.938709,31.040545 55.970352,36.034943 50.583805,41.038200 
	C48.772518,41.070618 47.379417,41.094173 45.764641,40.843155 
	C42.295010,39.006310 39.141727,37.163895 35.752823,36.018761 
	C34.385052,35.556580 32.501904,36.619583 30.506817,36.945297 
	C27.747221,34.893253 25.334105,32.884403 22.920986,30.875551 
z"/>
<path fill="#F2F2F4" opacity="1.000000" stroke="none" 
	d="
M65.444031,20.144638 
	C64.799736,21.557110 63.851273,22.715233 62.988033,23.933735 
	C54.445961,35.991215 40.440853,34.470295 33.106934,20.360130 
	C43.708061,12.885008 54.434086,13.616990 65.444031,20.144638 
z"/>
<path fill="#717C85" opacity="1.000000" stroke="none" 
	d="
M73.097038,27.959972 
	C72.721603,27.197817 72.346169,26.435659 71.834763,25.382372 
	C72.522842,25.067694 73.346893,25.044144 74.582977,25.017063 
	C75.900871,26.479443 76.806740,27.945351 77.859734,29.703526 
	C78.977379,32.422546 79.947899,34.849297 80.964439,37.635193 
	C81.327156,39.747402 81.643860,41.500469 81.967468,43.639633 
	C81.264175,44.020161 80.553978,44.014591 79.403046,43.631371 
	C78.381477,40.810986 77.800636,38.368256 77.177032,35.562019 
	C75.788528,32.785664 74.442780,30.372818 73.097038,27.959972 
z"/>
<path fill="#DFE2E5" opacity="1.000000" stroke="none" 
	d="
M22.651043,31.120586 
	C25.334105,32.884403 27.747221,34.893253 30.581497,37.300987 
	C35.552486,40.285149 40.102314,42.870422 44.789967,45.738304 
	C45.725544,46.990234 46.523296,47.959560 47.299706,49.371666 
	C47.186291,51.876125 47.094223,53.937805 46.604424,55.956131 
	C35.927887,54.791912 27.261568,50.036224 19.114643,43.964554 
	C19.034760,43.999447 18.869692,44.055561 18.869690,44.055561 
	C20.040159,39.825581 21.210629,35.595600 22.651043,31.120586 
z"/>
<path fill="#68747F" opacity="1.000000" stroke="none" 
	d="
M21.047831,56.984360 
	C20.795515,57.197342 20.552629,57.420578 20.148462,57.833858 
	C16.966709,53.805016 16.038683,49.335072 18.574043,44.261642 
	C18.869692,44.055561 19.034760,43.999447 19.039143,44.389153 
	C19.711626,48.847363 20.379728,52.915859 21.047831,56.984360 
z"/>
<path fill="#D9DCDF" opacity="1.000000" stroke="none" 
	d="
M21.309246,57.158867 
	C20.379728,52.915859 19.711626,48.847363 19.119026,44.354259 
	C27.261568,50.036224 35.927887,54.791912 46.697273,56.398529 
	C47.126968,59.589436 47.066086,62.294582 47.005203,64.999733 
	C39.347439,63.337437 31.689672,61.675144 23.649952,59.993355 
	C22.702221,59.093704 22.136442,58.213539 21.309246,57.158867 
z"/>
<path fill="#D86337" opacity="1.000000" stroke="none" 
	d="
M47.097107,65.364754 
	C47.066086,62.294582 47.126968,59.589436 47.095005,56.441887 
	C47.094223,53.937805 47.186291,51.876125 47.635956,49.373413 
	C48.887253,48.929157 49.780960,48.925930 50.696278,49.372078 
	C50.811008,52.214302 50.904125,54.607159 50.997242,57.000011 
	C50.941730,59.703667 50.886223,62.407322 50.913559,65.554977 
	C50.634117,67.474693 50.271828,68.950409 49.909538,70.426125 
	C49.394924,70.468674 48.880314,70.511230 48.365704,70.553780 
	C47.973469,68.945778 47.581238,67.337776 47.097107,65.364754 
z"/>
<path fill="#DFE1E4" opacity="1.000000" stroke="none" 
	d="
M51.384422,56.912022 
	C50.904125,54.607159 50.811008,52.214302 50.878216,49.115540 
	C51.652428,47.854752 52.266315,47.299873 53.205421,46.955410 
	C60.273449,49.016727 65.071419,45.163586 69.931610,41.543476 
	C72.391251,39.711422 74.792274,37.800686 77.219803,35.925526 
	C77.800636,38.368256 78.381477,40.810986 79.047531,43.632706 
	C79.084526,44.175224 79.036308,44.338753 78.911835,44.746395 
	C75.362663,47.254627 72.124229,50.082809 68.360527,51.647491 
	C63.034103,53.861832 57.320004,55.143646 51.384422,56.912022 
z"/>
<path fill="#E4E6E8" opacity="1.000000" stroke="none" 
	d="
M77.177032,35.562019 
	C74.792274,37.800686 72.391251,39.711422 69.931610,41.543476 
	C65.071419,45.163586 60.273449,49.016727 53.219208,46.580219 
	C52.929077,44.995102 52.950378,43.995590 53.262321,42.840740 
	C55.333019,41.035423 57.113083,39.385445 58.893147,37.735470 
	C61.579178,36.669552 64.540085,36.007767 66.872238,34.421562 
	C69.106110,32.902210 70.687042,30.422876 72.825989,28.162716 
	C74.442780,30.372818 75.788528,32.785664 77.177032,35.562019 
z"/>
<path fill="#5D6064" opacity="1.000000" stroke="none" 
	d="
M59.043598,37.446449 
	C57.113083,39.385445 55.333019,41.035423 53.050739,42.659290 
	C52.033012,42.098568 51.517502,41.563953 51.001991,41.029343 
	C55.970352,36.034943 60.938709,31.040545 65.907066,26.046146 
	C66.552437,26.661880 67.197815,27.277615 67.843193,27.893351 
	C64.960144,30.981375 62.077095,34.069401 59.043598,37.446449 
z"/>
<path fill="#4E5255" opacity="1.000000" stroke="none" 
	d="
M44.652145,45.455700 
	C40.102314,42.870422 35.552486,40.285149 30.927977,37.344185 
	C32.501904,36.619583 34.385052,35.556580 35.752823,36.018761 
	C39.141727,37.163895 42.295010,39.006310 45.695801,41.214977 
	C45.449810,43.059479 45.050976,44.257591 44.652145,45.455700 
z"/>
<path fill="#252626" opacity="1.000000" stroke="none" 
	d="
M44.789967,45.738304 
	C45.050976,44.257591 45.449810,43.059479 45.917480,41.489548 
	C47.379417,41.094173 48.772518,41.070618 50.583801,41.038200 
	C51.517502,41.563953 52.033012,42.098568 52.760101,42.814632 
	C52.950378,43.995590 52.929077,44.995102 52.893990,46.369801 
	C52.266315,47.299873 51.652428,47.854752 50.856602,48.666168 
	C49.780960,48.925930 48.887253,48.929157 47.657299,48.930637 
	C46.523296,47.959560 45.725544,46.990234 44.789967,45.738304 
z"/>
</svg>